<?xml version="1.0" encoding="UTF-8" standalone="no"?><!DOCTYPE svg PUBLIC "-//W3C//DTD SVG 1.1//EN" "http://www.w3.org/Graphics/SVG/1.1/DTD/svg11.dtd"><!-- Generated by graphviz version 2.40.1 (20161225.0304)
 --><!-- Title: G Pages: 1 --><svg xmlns="http://www.w3.org/2000/svg" xmlns:xlink="http://www.w3.org/1999/xlink" width="2245pt" height="774pt" viewBox="0.00 0.00 2245.25 773.60">
<g id="graph0" class="graph" transform="scale(1 1) rotate(0) translate(4 769.6)">
<title>G</title>
<polygon fill="#ffffff" stroke="transparent" points="-4,4 -4,-769.6 2241.2501,-769.6 2241.2501,4 -4,4"/>
<!-- from_類別 -->
<g id="node1" class="node">
<title>from_類別</title>
<ellipse fill="none" stroke="#000000" cx="517" cy="-747.6" rx="56.7852" ry="18"/>
<text text-anchor="middle" x="517" y="-743.4" font-family="Times,serif" font-size="14.00" fill="#000000">from_類別</text>
</g>
<!-- to_類別 -->
<g id="node2" class="node">
<title>to_類別</title>
<ellipse fill="none" stroke="#000000" cx="517" cy="-658.8" rx="45.7693" ry="18"/>
<text text-anchor="middle" x="517" y="-654.6" font-family="Times,serif" font-size="14.00" fill="#000000">to_類別</text>
</g>
<!-- from_類別&#45;&gt;to_類別 -->
<g id="edge1" class="edge">
<title>from_類別-&gt;to_類別</title>
<path fill="none" stroke="#00ff00" d="M517,-729.2006C517,-717.0949 517,-701.0076 517,-687.2674"/>
<polygon fill="#00ff00" stroke="#00ff00" points="520.5001,-686.872 517,-676.872 513.5001,-686.8721 520.5001,-686.872"/>
<text text-anchor="middle" x="567.5435" y="-699" font-family="Times,serif" font-size="14.00" fill="#000000">類別情境與問題</text>
</g>
<!-- 流域 -->
<g id="node3" class="node">
<title>流域</title>
<ellipse fill="none" stroke="#000000" cx="1545" cy="-747.6" rx="27" ry="18"/>
<text text-anchor="middle" x="1545" y="-743.4" font-family="Times,serif" font-size="14.00" fill="#000000">流域</text>
</g>
<!-- 流域&#45;&gt;流域 -->
<g id="edge2" class="edge">
<title>流域-&gt;流域</title>
<path fill="none" stroke="#00ff00" d="M1569.5325,-755.7211C1580.5078,-756.4945 1590,-753.7875 1590,-747.6 1590,-743.4428 1585.7151,-740.8567 1579.5743,-739.8417"/>
<polygon fill="#00ff00" stroke="#00ff00" points="1579.6524,-736.3424 1569.5325,-739.4789 1579.3995,-743.3378 1579.6524,-736.3424"/>
<text text-anchor="middle" x="1613.1413" y="-743.4" font-family="Times,serif" font-size="14.00" fill="#000000">流域範圍</text>
</g>
<!-- 流路 -->
<g id="node4" class="node">
<title>流路</title>
<ellipse fill="none" stroke="#000000" cx="803" cy="-658.8" rx="32.852" ry="18"/>
<text text-anchor="middle" x="803" y="-654.6" font-family="Times,serif" font-size="14.00" fill="#000000">流路</text>
</g>
<!-- 流域&#45;&gt;流路 -->
<g id="edge3" class="edge">
<title>流域-&gt;流路</title>
<path fill="none" stroke="#ffa500" d="M1522.2488,-737.8871C1487.9676,-723.3239 1425.9002,-697.2636 1415,-694.8 1306.5423,-670.2872 967.4375,-661.8067 846.4382,-659.5172"/>
<polygon fill="#ffa500" stroke="#ffa500" points="846.1537,-656.0115 836.0909,-659.3266 846.0247,-663.0103 846.1537,-656.0115"/>
<text text-anchor="middle" x="1491.4099" y="-699" font-family="Times,serif" font-size="14.00" fill="#000000">主要河道</text>
</g>
<!-- 流域&#45;&gt;流路 -->
<g id="edge4" class="edge">
<title>流域-&gt;流路</title>
<path fill="none" stroke="#ffa500" d="M1517.7526,-746.9363C1416.7659,-744.3221 1063.9997,-733.7746 953.8858,-711.6 912.8875,-703.3438 867.8743,-686.5125 837.7786,-674.0621"/>
<polygon fill="#ffa500" stroke="#ffa500" points="839.1307,-670.8338 828.5555,-670.1901 836.4211,-677.2882 839.1307,-670.8338"/>
<text text-anchor="middle" x="1002.0571" y="-699" font-family="Times,serif" font-size="14.00" fill="#000000">源頭到海洋路徑</text>
</g>
<!-- 流域&#45;&gt;流路 -->
<g id="edge5" class="edge">
<title>流域-&gt;流路</title>
<path fill="none" stroke="#0000ff" d="M1517.6376,-745.9863C1452.5648,-741.966 1283.5375,-730.4484 1143.3934,-711.6 1101.5953,-705.9784 1091.6266,-701.5756 1050,-694.8 978.1228,-683.1005 894.1774,-671.2483 844.9799,-664.4853"/>
<polygon fill="#0000ff" stroke="#0000ff" points="845.4085,-661.0114 835.0259,-663.1212 844.4581,-667.9466 845.4085,-661.0114"/>
<text text-anchor="middle" x="1171.8033" y="-699" font-family="Times,serif" font-size="14.00" fill="#000000">所有河道</text>
</g>
<!-- 流域&#45;&gt;流路 -->
<g id="edge6" class="edge">
<title>流域-&gt;流路</title>
<path fill="none" stroke="#c0c0c0" d="M1517.7801,-745.6286C1466.4162,-741.5928 1351.8481,-731.0856 1257.1262,-711.6 1230.7865,-706.1815 1225.4274,-699.7732 1199,-694.8 1072.0997,-670.9193 919.2289,-662.7168 846.088,-660.0307"/>
<polygon fill="#c0c0c0" stroke="#c0c0c0" points="846.0043,-656.5257 835.8878,-659.6732 845.759,-663.5214 846.0043,-656.5257"/>
<text text-anchor="middle" x="1291.4369" y="-699" font-family="Times,serif" font-size="14.00" fill="#000000">親水河道</text>
</g>
<!-- 流域&#45;&gt;流路 -->
<g id="edge14" class="edge">
<title>流域-&gt;流路</title>
<path fill="none" stroke="#c0c0c0" d="M1518.2678,-744.3198C1471.4712,-738.3203 1376.7809,-724.9624 1346.2682,-711.6 1334.9118,-706.6267 1335.6131,-699.1402 1324,-694.8 1279.7909,-678.2774 962.8406,-664.8169 846.0589,-660.3676"/>
<polygon fill="#c0c0c0" stroke="#c0c0c0" points="846.1701,-656.8694 836.0451,-659.9895 845.9059,-663.8644 846.1701,-656.8694"/>
<text text-anchor="middle" x="1379.3659" y="-699" font-family="Times,serif" font-size="14.00" fill="#000000">兩點河道</text>
</g>
<!-- 生活區域 -->
<g id="node5" class="node">
<title>生活區域</title>
<ellipse fill="none" stroke="#000000" cx="1016" cy="-284.4" rx="42.3433" ry="18"/>
<text text-anchor="middle" x="1016" y="-280.2" font-family="Times,serif" font-size="14.00" fill="#000000">生活區域</text>
</g>
<!-- 流域&#45;&gt;生活區域 -->
<g id="edge7" class="edge">
<title>流域-&gt;生活區域</title>
<path fill="none" stroke="#00ff00" d="M1545,-729.5721C1545,-711.6311 1545,-683.3125 1545,-658.8 1545,-658.8 1545,-658.8 1545,-392.4 1545,-343.982 1200.4053,-303.3681 1067.4595,-289.5009"/>
<polygon fill="#00ff00" stroke="#00ff00" points="1067.8168,-286.0192 1057.5097,-288.4718 1067.0966,-292.9821 1067.8168,-286.0192"/>
<text text-anchor="middle" x="1567.75" y="-521.4" font-family="Times,serif" font-size="14.00" fill="#000000">生活區域</text>
</g>
<!-- 農業區域 -->
<g id="node6" class="node">
<title>農業區域</title>
<ellipse fill="none" stroke="#000000" cx="1622" cy="-658.8" rx="49.2434" ry="18"/>
<text text-anchor="middle" x="1622" y="-654.6" font-family="Times,serif" font-size="14.00" fill="#000000">農業區域</text>
</g>
<!-- 流域&#45;&gt;農業區域 -->
<g id="edge8" class="edge">
<title>流域-&gt;農業區域</title>
<path fill="none" stroke="#c0c0c0" d="M1558.7661,-731.7243C1570.3328,-718.3851 1587.0647,-699.0891 1600.412,-683.6963"/>
<polygon fill="#c0c0c0" stroke="#c0c0c0" points="1603.1311,-685.903 1607.038,-676.0548 1597.8424,-681.3171 1603.1311,-685.903"/>
<text text-anchor="middle" x="1618.6066" y="-699" font-family="Times,serif" font-size="14.00" fill="#000000">農業區域</text>
</g>
<!-- 雨水下水道 -->
<g id="node7" class="node">
<title>雨水下水道</title>
<ellipse fill="none" stroke="#000000" cx="1749" cy="-658.8" rx="59.6582" ry="18"/>
<text text-anchor="middle" x="1749" y="-654.6" font-family="Times,serif" font-size="14.00" fill="#000000">雨水下水道</text>
</g>
<!-- 流域&#45;&gt;雨水下水道 -->
<g id="edge9" class="edge">
<title>流域-&gt;雨水下水道</title>
<path fill="none" stroke="#ff0000" d="M1570.034,-740.255C1591.5782,-733.6427 1623.3142,-723.2025 1650,-711.6 1671.2418,-702.3644 1694.1099,-690.3168 1712.5105,-680.062"/>
<polygon fill="#ff0000" stroke="#ff0000" points="1714.4301,-682.9978 1721.4248,-675.0402 1710.9943,-676.899 1714.4301,-682.9978"/>
<text text-anchor="middle" x="1719.1869" y="-699" font-family="Times,serif" font-size="14.00" fill="#000000">雨水下水道</text>
</g>
<!-- 污水下水道 -->
<g id="node8" class="node">
<title>污水下水道</title>
<ellipse fill="none" stroke="#000000" cx="1882" cy="-658.8" rx="55.6456" ry="18"/>
<text text-anchor="middle" x="1882" y="-654.6" font-family="Times,serif" font-size="14.00" fill="#000000">污水下水道</text>
</g>
<!-- 流域&#45;&gt;污水下水道 -->
<g id="edge10" class="edge">
<title>流域-&gt;污水下水道</title>
<path fill="none" stroke="#ff0000" d="M1572.021,-745.0903C1612.9134,-740.8344 1692.6766,-730.7376 1758,-711.6 1787.2389,-703.034 1818.8151,-689.5214 1842.7859,-678.3107"/>
<polygon fill="#ff0000" stroke="#ff0000" points="1844.3711,-681.4326 1851.9065,-673.9849 1841.3714,-675.108 1844.3711,-681.4326"/>
<text text-anchor="middle" x="1836.4639" y="-699" font-family="Times,serif" font-size="14.00" fill="#000000">污水下水道</text>
</g>
<!-- 流域分區 -->
<g id="node9" class="node">
<title>流域分區</title>
<ellipse fill="none" stroke="#000000" cx="1996" cy="-658.8" rx="40.0147" ry="18"/>
<text text-anchor="middle" x="1996" y="-654.6" font-family="Times,serif" font-size="14.00" fill="#000000">流域分區</text>
</g>
<!-- 流域&#45;&gt;流域分區 -->
<g id="edge11" class="edge">
<title>流域-&gt;流域分區</title>
<path fill="none" stroke="#0000ff" d="M1572.1054,-745.6627C1640.0449,-740.6408 1816.2159,-726.5478 1873,-711.6 1903.751,-703.5051 1936.7702,-688.9786 1960.847,-677.2088"/>
<polygon fill="#0000ff" stroke="#0000ff" points="1962.5406,-680.2756 1969.9362,-672.689 1959.4237,-674.0078 1962.5406,-680.2756"/>
<text text-anchor="middle" x="1943" y="-699" font-family="Times,serif" font-size="14.00" fill="#000000">流域分區</text>
</g>
<!-- 圳路 -->
<g id="node10" class="node">
<title>圳路</title>
<ellipse fill="none" stroke="#000000" cx="2089" cy="-658.8" rx="35.181" ry="18"/>
<text text-anchor="middle" x="2089" y="-654.6" font-family="Times,serif" font-size="14.00" fill="#000000">圳路</text>
</g>
<!-- 流域&#45;&gt;圳路 -->
<g id="edge12" class="edge">
<title>流域-&gt;圳路</title>
<path fill="none" stroke="#ff0000" d="M1572.0521,-746.4503C1653.0107,-742.8282 1892.4471,-730.7453 1968,-711.6 1998.9901,-703.747 2032.1313,-688.7767 2055.8793,-676.7763"/>
<polygon fill="#ff0000" stroke="#ff0000" points="2057.5235,-679.8665 2064.813,-672.1779 2054.3199,-673.6426 2057.5235,-679.8665"/>
<text text-anchor="middle" x="2033.6169" y="-699" font-family="Times,serif" font-size="14.00" fill="#000000">圳路</text>
</g>
<!-- 排水系統 -->
<g id="node11" class="node">
<title>排水系統</title>
<ellipse fill="none" stroke="#000000" cx="2190" cy="-658.8" rx="47.0014" ry="18"/>
<text text-anchor="middle" x="2190" y="-654.6" font-family="Times,serif" font-size="14.00" fill="#000000">排水系統</text>
</g>
<!-- 流域&#45;&gt;排水系統 -->
<g id="edge13" class="edge">
<title>流域-&gt;排水系統</title>
<path fill="none" stroke="#c0c0c0" d="M1572.249,-746.7607C1664.0817,-743.7629 1961.6986,-732.6253 2055,-711.6 2088.7821,-703.9873 2125.2513,-689.3037 2151.7588,-677.35"/>
<polygon fill="#c0c0c0" stroke="#c0c0c0" points="2153.4206,-680.4384 2161.0506,-673.0876 2150.5019,-674.0759 2153.4206,-680.4384"/>
<text text-anchor="middle" x="2135.25" y="-699" font-family="Times,serif" font-size="14.00" fill="#000000">排水系統</text>
</g>
<!-- 集水區 -->
<g id="node12" class="node">
<title>集水區</title>
<ellipse fill="none" stroke="#000000" cx="718" cy="-570" rx="37.1443" ry="18"/>
<text text-anchor="middle" x="718" y="-565.8" font-family="Times,serif" font-size="14.00" fill="#000000">集水區</text>
</g>
<!-- 流域&#45;&gt;集水區 -->
<g id="edge15" class="edge">
<title>流域-&gt;集水區</title>
<path fill="none" stroke="#c0c0c0" d="M1517.9544,-746.5373C1370.6945,-740.6202 671.0146,-710.7769 641.447,-676.8 616.7386,-648.407 655.6758,-612.2511 686.4842,-590.1319"/>
<polygon fill="#c0c0c0" stroke="#c0c0c0" points="688.6847,-592.8648 694.8985,-584.2834 684.6895,-587.1168 688.6847,-592.8648"/>
<text text-anchor="middle" x="701.7765" y="-654.6" font-family="Times,serif" font-size="14.00" fill="#000000">兩點間集水區為何</text>
</g>
<!-- 流路&#45;&gt;流路 -->
<g id="edge16" class="edge">
<title>流路-&gt;流路</title>
<path fill="none" stroke="#c0c0c0" d="M835.8169,-660.2985C845.9604,-660.2683 853.9259,-659.7687 853.9259,-658.8 853.9259,-658.1945 850.8144,-657.7724 846.0043,-657.5335"/>
<polygon fill="#c0c0c0" stroke="#c0c0c0" points="845.8941,-654.0302 835.8169,-657.3015 845.7346,-661.0283 845.8941,-654.0302"/>
<text text-anchor="middle" x="886.7818" y="-654.6" font-family="Times,serif" font-size="14.00" fill="#000000">水量資訊</text>
</g>
<!-- 流路&#45;&gt;流路 -->
<g id="edge17" class="edge">
<title>流路-&gt;流路</title>
<path fill="none" stroke="#c0c0c0" d="M835.7952,-661.236C871.5142,-662.4792 919.6377,-661.6672 919.6377,-658.8 919.6377,-656.2016 880.1144,-655.2911 846.1183,-656.0686"/>
<polygon fill="#c0c0c0" stroke="#c0c0c0" points="845.6909,-652.5793 835.7952,-656.364 845.8912,-659.5764 845.6909,-652.5793"/>
<text text-anchor="middle" x="946.0823" y="-654.6" font-family="Times,serif" font-size="14.00" fill="#000000">目前流量</text>
</g>
<!-- 流路&#45;&gt;流路 -->
<g id="edge18" class="edge">
<title>流路-&gt;流路</title>
<path fill="none" stroke="#c0c0c0" d="M835.7789,-661.8959C887.1694,-664.5077 972.5269,-663.4758 972.5269,-658.8 972.5269,-654.4165 897.5057,-653.2355 845.7836,-655.2571"/>
<polygon fill="#c0c0c0" stroke="#c0c0c0" points="845.6127,-651.7611 835.7789,-655.7041 845.9252,-658.7542 845.6127,-651.7611"/>
<text text-anchor="middle" x="999.8598" y="-654.6" font-family="Times,serif" font-size="14.00" fill="#000000">歷史流量</text>
</g>
<!-- 流路&#45;&gt;流路 -->
<g id="edge19" class="edge">
<title>流路-&gt;流路</title>
<path fill="none" stroke="#c0c0c0" d="M835.7353,-662.3973C901.0757,-666.5303 1027.1927,-665.3312 1027.1927,-658.8 1027.1927,-652.5877 913.0911,-651.1995 845.7196,-654.6354"/>
<polygon fill="#c0c0c0" stroke="#c0c0c0" points="845.5206,-651.141 835.7353,-655.2027 845.9177,-658.1297 845.5206,-651.141"/>
<text text-anchor="middle" x="1055.1899" y="-654.6" font-family="Times,serif" font-size="14.00" fill="#000000">RPI為何</text>
</g>
<!-- 流路&#45;&gt;流路 -->
<g id="edge21" class="edge">
<title>流路-&gt;流路</title>
<path fill="none" stroke="#0000ff" d="M835.3283,-662.7752C913.2828,-668.5528 1083.1871,-667.2277 1083.1871,-658.8 1083.1871,-650.7179 926.9345,-649.1678 845.3664,-654.1497"/>
<polygon fill="#0000ff" stroke="#0000ff" points="845.0709,-650.6616 835.3283,-654.8248 845.5407,-657.6458 845.0709,-650.6616"/>
<text text-anchor="middle" x="1114.3266" y="-654.6" font-family="Times,serif" font-size="14.00" fill="#000000">下游入海線</text>
</g>
<!-- 流路&#45;&gt;流路 -->
<g id="edge23" class="edge">
<title>流路-&gt;流路</title>
<path fill="none" stroke="#c0c0c0" d="M835.1202,-663.0745C925.7482,-670.5725 1145.4661,-669.1477 1145.4661,-658.8 1145.4661,-648.8161 940.9255,-647.1387 845.1421,-653.7678"/>
<polygon fill="#c0c0c0" stroke="#c0c0c0" points="844.8278,-650.2815 835.1202,-654.5255 845.3556,-657.2616 844.8278,-650.2815"/>
<text text-anchor="middle" x="1192.126" y="-654.6" font-family="Times,serif" font-size="14.00" fill="#000000">這裡的水如何</text>
</g>
<!-- 流路&#45;&gt;流路 -->
<g id="edge24" class="edge">
<title>流路-&gt;流路</title>
<path fill="none" stroke="#c0c0c0" d="M835.1314,-663.2389C942.4163,-672.598 1238.7859,-671.1184 1238.7859,-658.8 1238.7859,-646.8546 960.089,-645.1015 845.3815,-653.5409"/>
<polygon fill="#c0c0c0" stroke="#c0c0c0" points="844.8203,-650.0745 835.1314,-654.3611 845.3787,-657.0522 844.8203,-650.0745"/>
<text text-anchor="middle" x="1273.5801" y="-654.6" font-family="Times,serif" font-size="14.00" fill="#000000">親水體檢</text>
</g>
<!-- 流路&#45;&gt;流路 -->
<g id="edge25" class="edge">
<title>流路-&gt;流路</title>
<path fill="none" stroke="#c0c0c0" d="M835.1644,-663.4758C954.2849,-674.6086 1308.3743,-673.05 1308.3743,-658.8 1308.3743,-644.9396 973.3844,-643.0861 845.451,-653.2394"/>
<polygon fill="#c0c0c0" stroke="#c0c0c0" points="844.8276,-649.78 835.1644,-654.1242 845.4276,-656.7543 844.8276,-649.78"/>
<text text-anchor="middle" x="1352.1138" y="-654.6" font-family="Times,serif" font-size="14.00" fill="#000000">最近點資訊</text>
</g>
<!-- 流路&#45;&gt;集水區 -->
<g id="edge20" class="edge">
<title>流路-&gt;集水區</title>
<path fill="none" stroke="#0000ff" d="M787.4097,-642.5127C774.4311,-628.9539 755.7649,-609.4533 741.0581,-594.0889"/>
<polygon fill="#0000ff" stroke="#0000ff" points="743.2226,-591.2885 733.7793,-586.4848 738.1658,-596.1289 743.2226,-591.2885"/>
<text text-anchor="middle" x="800.2942" y="-610.2" font-family="Times,serif" font-size="14.00" fill="#000000">上游集水區</text>
</g>
<!-- 污染流路 -->
<g id="node13" class="node">
<title>污染流路</title>
<ellipse fill="none" stroke="#000000" cx="522" cy="-106.8" rx="50.7526" ry="18"/>
<text text-anchor="middle" x="522" y="-102.6" font-family="Times,serif" font-size="14.00" fill="#000000">污染流路</text>
</g>
<!-- 流路&#45;&gt;污染流路 -->
<g id="edge22" class="edge">
<title>流路-&gt;污染流路</title>
<path fill="none" stroke="#0000ff" d="M835.3938,-655.5185C882.6695,-648.7404 965,-628.5336 965,-570 965,-570 965,-570 965,-392.4 965,-234.7605 862.6847,-192.2438 713,-142.8 669.6166,-128.4696 618.6938,-119.2274 580.3432,-113.6998"/>
<polygon fill="#0000ff" stroke="#0000ff" points="580.7659,-110.2249 570.3775,-112.3059 579.7962,-117.1574 580.7659,-110.2249"/>
<text text-anchor="middle" x="1029.1494" y="-388.2" font-family="Times,serif" font-size="14.00" fill="#000000">自設污染源污染範圍</text>
</g>
<!-- 生活區域&#45;&gt;生活區域 -->
<g id="edge27" class="edge">
<title>生活區域-&gt;生活區域</title>
<path fill="none" stroke="#c0c0c0" d="M1053.7635,-292.65C1066.3513,-292.65 1076.4216,-289.9 1076.4216,-284.4 1076.4216,-280.5328 1071.443,-278.0252 1064.1112,-276.8771"/>
<polygon fill="#c0c0c0" stroke="#c0c0c0" points="1063.9843,-273.3596 1053.7635,-276.15 1063.4935,-280.3424 1063.9843,-273.3596"/>
<text text-anchor="middle" x="1113.1695" y="-280.2" font-family="Times,serif" font-size="14.00" fill="#000000">接管率統計</text>
</g>
<!-- 取水口 -->
<g id="node14" class="node">
<title>取水口</title>
<ellipse fill="none" stroke="#000000" cx="882" cy="-106.8" rx="35.3587" ry="18"/>
<text text-anchor="middle" x="882" y="-102.6" font-family="Times,serif" font-size="14.00" fill="#000000">取水口</text>
</g>
<!-- 生活區域&#45;&gt;取水口 -->
<g id="edge26" class="edge">
<title>生活區域-&gt;取水口</title>
<path fill="none" stroke="#00ff00" d="M1007.0711,-266.5378C990.1765,-233.1528 953.5665,-162.8553 935,-142.8 929.0799,-136.4052 921.8196,-130.5528 914.5938,-125.5098"/>
<polygon fill="#00ff00" stroke="#00ff00" points="916.4839,-122.5637 906.2095,-119.9775 912.6286,-128.4064 916.4839,-122.5637"/>
<text text-anchor="middle" x="1013.6073" y="-191.4" font-family="Times,serif" font-size="14.00" fill="#000000">取水口為何</text>
</g>
<!-- 淨水場 -->
<g id="node15" class="node">
<title>淨水場</title>
<ellipse fill="none" stroke="#000000" cx="1094" cy="-195.6" rx="36.2878" ry="18"/>
<text text-anchor="middle" x="1094" y="-191.4" font-family="Times,serif" font-size="14.00" fill="#000000">淨水場</text>
</g>
<!-- 生活區域&#45;&gt;淨水場 -->
<g id="edge28" class="edge">
<title>生活區域-&gt;淨水場</title>
<path fill="none" stroke="#00ff00" d="M1008.8667,-266.3895C1005.7822,-255.4821 1004.2143,-241.7617 1010.8868,-231.6 1013.6809,-227.3448 1034.9139,-218.1833 1055.2171,-210.1678"/>
<polygon fill="#00ff00" stroke="#00ff00" points="1056.6674,-213.3591 1064.7165,-206.4698 1054.1279,-206.836 1056.6674,-213.3591"/>
<text text-anchor="middle" x="1048.0566" y="-235.8" font-family="Times,serif" font-size="14.00" fill="#000000">淨水廠為何</text>
</g>
<!-- 水源 -->
<g id="node16" class="node">
<title>水源</title>
<ellipse fill="none" stroke="#000000" cx="1622" cy="-570" rx="27.2892" ry="18"/>
<text text-anchor="middle" x="1622" y="-565.8" font-family="Times,serif" font-size="14.00" fill="#000000">水源</text>
</g>
<!-- 農業區域&#45;&gt;水源 -->
<g id="edge29" class="edge">
<title>農業區域-&gt;水源</title>
<path fill="none" stroke="#c0c0c0" d="M1622,-640.4006C1622,-628.2949 1622,-612.2076 1622,-598.4674"/>
<polygon fill="#c0c0c0" stroke="#c0c0c0" points="1625.5001,-598.072 1622,-588.072 1618.5001,-598.0721 1625.5001,-598.072"/>
<text text-anchor="middle" x="1647.4646" y="-610.2" font-family="Times,serif" font-size="14.00" fill="#000000">水源在哪</text>
</g>
<!-- 集水區&#45;&gt;集水區 -->
<g id="edge41" class="edge">
<title>集水區-&gt;集水區</title>
<path fill="none" stroke="#c0c0c0" d="M751.2153,-578.2374C763.3671,-578.4606 773.3217,-575.7148 773.3217,-570 773.3217,-565.9818 768.4003,-563.4313 761.2541,-562.3488"/>
<polygon fill="#c0c0c0" stroke="#c0c0c0" points="761.4024,-558.8516 751.2153,-561.7626 760.9943,-565.8397 761.4024,-558.8516"/>
<text text-anchor="middle" x="811.2309" y="-565.8" font-family="Times,serif" font-size="14.00" fill="#000000">雨量資訊</text>
</g>
<!-- 污染源s -->
<g id="node19" class="node">
<title>污染源s</title>
<ellipse fill="none" stroke="#000000" cx="500" cy="-481.2" rx="41.7153" ry="18"/>
<text text-anchor="middle" x="500" y="-477" font-family="Times,serif" font-size="14.00" fill="#000000">污染源s</text>
</g>
<!-- 集水區&#45;&gt;污染源s -->
<g id="edge40" class="edge">
<title>集水區-&gt;污染源s</title>
<path fill="none" stroke="#c0c0c0" d="M689.0513,-558.208C650.7182,-542.5935 582.9464,-514.9873 539.8135,-497.4176"/>
<polygon fill="#c0c0c0" stroke="#c0c0c0" points="541.0548,-494.1441 530.4733,-493.613 538.4141,-500.6269 541.0548,-494.1441"/>
<text text-anchor="middle" x="666.9022" y="-521.4" font-family="Times,serif" font-size="14.00" fill="#000000">有哪些污染源</text>
</g>
<!-- 取水口&#45;&gt;集水區 -->
<g id="edge33" class="edge">
<title>取水口-&gt;集水區</title>
<path fill="none" stroke="#c0c0c0" d="M884.6781,-124.9345C888.1099,-149.1739 893.8699,-193.505 896,-231.6 896.4168,-239.055 896.8793,-240.9853 896,-248.4 892.1239,-281.0839 886.0436,-288.3216 878.6788,-320.4 869.5167,-360.3068 872.4552,-371.7289 859,-410.4 838.1348,-470.3679 781.8118,-521.7013 746.9929,-548.9985"/>
<polygon fill="#c0c0c0" stroke="#c0c0c0" points="744.8595,-546.2238 739.0627,-555.0922 749.1247,-551.7744 744.8595,-546.2238"/>
<text text-anchor="middle" x="915.1606" y="-334.2" font-family="Times,serif" font-size="14.00" fill="#000000">集水區為何</text>
</g>
<!-- 取水口&#45;&gt;取水口 -->
<g id="edge31" class="edge">
<title>取水口-&gt;取水口</title>
<path fill="none" stroke="#c0c0c0" d="M916.2687,-110.921C926.861,-110.8377 935.1789,-109.4641 935.1789,-106.8 935.1789,-105.0933 931.7652,-103.9163 926.5268,-103.2688"/>
<polygon fill="#c0c0c0" stroke="#c0c0c0" points="926.4532,-99.7588 916.2687,-102.679 926.0514,-106.7473 926.4532,-99.7588"/>
<text text-anchor="middle" x="968.8125" y="-102.6" font-family="Times,serif" font-size="14.00" fill="#000000">取水口水質</text>
</g>
<!-- 取水口&#45;&gt;取水口 -->
<g id="edge32" class="edge">
<title>取水口-&gt;取水口</title>
<path fill="none" stroke="#ffa500" d="M914.9644,-113.414C951.9359,-116.9539 1002.4461,-114.7492 1002.4461,-106.8 1002.4461,-99.565 960.6042,-97.0886 925.2108,-99.371"/>
<polygon fill="#ffa500" stroke="#ffa500" points="924.6553,-95.904 914.9644,-100.186 925.2104,-102.882 924.6553,-95.904"/>
<text text-anchor="middle" x="1021.4994" y="-102.6" font-family="Times,serif" font-size="14.00" fill="#000000">取水量</text>
</g>
<!-- 影響範圍 -->
<g id="node17" class="node">
<title>影響範圍</title>
<ellipse fill="none" stroke="#000000" cx="882" cy="-18" rx="59.0959" ry="18"/>
<text text-anchor="middle" x="882" y="-13.8" font-family="Times,serif" font-size="14.00" fill="#000000">影響範圍</text>
</g>
<!-- 取水口&#45;&gt;影響範圍 -->
<g id="edge30" class="edge">
<title>取水口-&gt;影響範圍</title>
<path fill="none" stroke="#c0c0c0" d="M882,-88.4006C882,-76.2949 882,-60.2076 882,-46.4674"/>
<polygon fill="#c0c0c0" stroke="#c0c0c0" points="885.5001,-46.072 882,-36.072 878.5001,-46.0721 885.5001,-46.072"/>
<text text-anchor="middle" x="929.0428" y="-58.2" font-family="Times,serif" font-size="14.00" fill="#000000">下游影響範圍</text>
</g>
<!-- 管理單位 -->
<g id="node18" class="node">
<title>管理單位</title>
<ellipse fill="none" stroke="#000000" cx="472" cy="-18" rx="53.9175" ry="18"/>
<text text-anchor="middle" x="472" y="-13.8" font-family="Times,serif" font-size="14.00" fill="#000000">管理單位</text>
</g>
<!-- 取水口&#45;&gt;管理單位 -->
<g id="edge34" class="edge">
<title>取水口-&gt;管理單位</title>
<path fill="none" stroke="#c0c0c0" d="M849.4853,-99.7578C779.525,-84.6054 614.0389,-48.7635 527.2706,-29.9708"/>
<polygon fill="#c0c0c0" stroke="#c0c0c0" points="527.8594,-26.5173 517.3451,-27.8211 526.3776,-33.3586 527.8594,-26.5173"/>
<text text-anchor="middle" x="762.2202" y="-58.2" font-family="Times,serif" font-size="14.00" fill="#000000">管理單位為何</text>
</g>
<!-- 淨水場&#45;&gt;生活區域 -->
<g id="edge35" class="edge">
<title>淨水場-&gt;生活區域</title>
<path fill="none" stroke="#c0c0c0" d="M1094.7964,-213.7787C1094.3923,-224.7495 1092.2252,-238.4773 1085,-248.4 1078.6112,-257.174 1069.4381,-263.9863 1059.857,-269.2041"/>
<polygon fill="#c0c0c0" stroke="#c0c0c0" points="1058.0624,-266.1859 1050.6237,-273.7302 1061.1435,-272.4714 1058.0624,-266.1859"/>
<text text-anchor="middle" x="1128.9646" y="-235.8" font-family="Times,serif" font-size="14.00" fill="#000000">供給哪些區域</text>
</g>
<!-- 淨水場&#45;&gt;取水口 -->
<g id="edge36" class="edge">
<title>淨水場-&gt;取水口</title>
<path fill="none" stroke="#00ff00" d="M1065.321,-184.5946C1049.0144,-177.9928 1028.397,-169.059 1010.7854,-159.6 998.7355,-153.1281 997.2753,-148.8336 985,-142.8 965.167,-133.0515 942.0195,-124.7117 922.6974,-118.5212"/>
<polygon fill="#00ff00" stroke="#00ff00" points="923.5685,-115.1266 912.9797,-115.4838 921.4802,-121.8078 923.5685,-115.1266"/>
<text text-anchor="middle" x="1045.6073" y="-147" font-family="Times,serif" font-size="14.00" fill="#000000">取水口為何</text>
</g>
<!-- 淨水場&#45;&gt;淨水場 -->
<g id="edge37" class="edge">
<title>淨水場-&gt;淨水場</title>
<path fill="none" stroke="#00ff00" d="M1129.4104,-199.7159C1139.9458,-199.5931 1148.1436,-198.2211 1148.1436,-195.6 1148.1436,-193.9209 1144.7792,-192.7544 1139.5912,-192.1005"/>
<polygon fill="#00ff00" stroke="#00ff00" points="1139.6037,-188.5949 1129.4104,-191.4841 1139.1806,-195.5821 1139.6037,-188.5949"/>
<text text-anchor="middle" x="1182.4765" y="-191.4" font-family="Times,serif" font-size="14.00" fill="#000000">淨水場水質</text>
</g>
<!-- 淨水場&#45;&gt;淨水場 -->
<g id="edge38" class="edge">
<title>淨水場-&gt;淨水場</title>
<path fill="none" stroke="#ffa500" d="M1127.8545,-202.2426C1165.5114,-205.7419 1216.8094,-203.5277 1216.8094,-195.6 1216.8094,-188.3845 1174.3149,-185.9021 1138.2874,-188.1526"/>
<polygon fill="#ffa500" stroke="#ffa500" points="1137.5556,-184.6986 1127.8545,-188.9574 1138.0941,-191.6778 1137.5556,-184.6986"/>
<text text-anchor="middle" x="1254.062" y="-191.4" font-family="Times,serif" font-size="14.00" fill="#000000">淨水場供水量</text>
</g>
<!-- 淨水場&#45;&gt;管理單位 -->
<g id="edge39" class="edge">
<title>淨水場-&gt;管理單位</title>
<path fill="none" stroke="#c0c0c0" d="M1094.21,-177.4544C1093.5136,-154.1809 1088.9165,-113.8411 1067,-88.8 1039.5725,-57.4622 1020.5897,-63.3168 980,-54 937.7765,-44.3082 662.4539,-28.3558 535.6956,-21.4094"/>
<polygon fill="#c0c0c0" stroke="#c0c0c0" points="535.5419,-17.8959 525.3659,-20.8453 535.1601,-24.8855 535.5419,-17.8959"/>
<text text-anchor="middle" x="1134.2202" y="-102.6" font-family="Times,serif" font-size="14.00" fill="#000000">管理單位為何</text>
</g>
<!-- 工廠 -->
<g id="node20" class="node">
<title>工廠</title>
<ellipse fill="none" stroke="#000000" cx="44" cy="-392.4" rx="31.1313" ry="18"/>
<text text-anchor="middle" x="44" y="-388.2" font-family="Times,serif" font-size="14.00" fill="#000000">工廠</text>
</g>
<!-- 污染源s&#45;&gt;工廠 -->
<g id="edge42" class="edge">
<title>污染源s-&gt;工廠</title>
<path fill="none" stroke="#c0c0c0" d="M458.76,-478.635C380.147,-473.4581 211.6827,-460.904 155.6014,-445.2 126.8856,-437.1589 96.4204,-422.2636 74.5884,-410.3388"/>
<polygon fill="#c0c0c0" stroke="#c0c0c0" points="76.23,-407.2469 65.7906,-405.4388 72.8239,-413.3624 76.23,-407.2469"/>
<text text-anchor="middle" x="170.6993" y="-432.6" font-family="Times,serif" font-size="14.00" fill="#000000">工廠</text>
</g>
<!-- 工業區域 -->
<g id="node21" class="node">
<title>工業區域</title>
<ellipse fill="none" stroke="#000000" cx="181" cy="-284.4" rx="46.7024" ry="18"/>
<text text-anchor="middle" x="181" y="-280.2" font-family="Times,serif" font-size="14.00" fill="#000000">工業區域</text>
</g>
<!-- 污染源s&#45;&gt;工業區域 -->
<g id="edge43" class="edge">
<title>污染源s-&gt;工業區域</title>
<path fill="none" stroke="#c0c0c0" d="M459.3095,-477.1433C401.721,-471.0325 299.5947,-458.7321 265,-445.2 239.2532,-435.1289 229.3812,-432.9882 213.4408,-410.4 202.4416,-394.8136 191.8345,-344.944 185.8903,-312.8158"/>
<polygon fill="#c0c0c0" stroke="#c0c0c0" points="189.2806,-311.8944 184.0594,-302.6754 182.392,-313.1382 189.2806,-311.8944"/>
<text text-anchor="middle" x="239.7796" y="-388.2" font-family="Times,serif" font-size="14.00" fill="#000000">工業區域</text>
</g>
<!-- 生活污染源 -->
<g id="node22" class="node">
<title>生活污染源</title>
<ellipse fill="none" stroke="#000000" cx="414" cy="-338.4" rx="54.5043" ry="18"/>
<text text-anchor="middle" x="414" y="-334.2" font-family="Times,serif" font-size="14.00" fill="#000000">生活污染源</text>
</g>
<!-- 污染源s&#45;&gt;生活污染源 -->
<g id="edge44" class="edge">
<title>污染源s-&gt;生活污染源</title>
<path fill="none" stroke="#c0c0c0" d="M464.4263,-471.8574C450.4609,-466.3759 435.645,-457.9379 426.6248,-445.2 410.5101,-422.4436 408.9009,-389.8903 410.3571,-366.7158"/>
<polygon fill="#c0c0c0" stroke="#c0c0c0" points="413.8669,-366.7497 411.2341,-356.4872 406.8925,-366.1516 413.8669,-366.7497"/>
<text text-anchor="middle" x="458.6876" y="-432.6" font-family="Times,serif" font-size="14.00" fill="#000000">生活污染源</text>
</g>
<!-- 工業污水處理廠 -->
<g id="node23" class="node">
<title>工業污水處理廠</title>
<ellipse fill="none" stroke="#000000" cx="192" cy="-195.6" rx="77.3869" ry="18"/>
<text text-anchor="middle" x="192" y="-191.4" font-family="Times,serif" font-size="14.00" fill="#000000">工業污水處理廠</text>
</g>
<!-- 污染源s&#45;&gt;工業污水處理廠 -->
<g id="edge45" class="edge">
<title>污染源s-&gt;工業污水處理廠</title>
<path fill="none" stroke="#c0c0c0" d="M461.5949,-474.1891C405.0682,-461.6161 301.0611,-429.393 253.7276,-356.4 223.4378,-309.6901 270.7073,-279.8865 243,-231.6 240.2019,-226.7236 236.4436,-222.3453 232.2293,-218.4634"/>
<polygon fill="#c0c0c0" stroke="#c0c0c0" points="234.2343,-215.5835 224.2596,-212.0118 229.8299,-221.0242 234.2343,-215.5835"/>
<text text-anchor="middle" x="302.1362" y="-334.2" font-family="Times,serif" font-size="14.00" fill="#000000">工業污水處理廠</text>
</g>
<!-- 生活污水處理廠 -->
<g id="node24" class="node">
<title>生活污水處理廠</title>
<ellipse fill="none" stroke="#000000" cx="777" cy="-392.4" rx="73.0286" ry="18"/>
<text text-anchor="middle" x="777" y="-388.2" font-family="Times,serif" font-size="14.00" fill="#000000">生活污水處理廠</text>
</g>
<!-- 污染源s&#45;&gt;生活污水處理廠 -->
<g id="edge46" class="edge">
<title>污染源s-&gt;生活污水處理廠</title>
<path fill="none" stroke="#c0c0c0" d="M541.2186,-477.7022C597.1503,-472.4327 693.7035,-461.3283 725,-445.2 737.5435,-438.7358 748.8838,-428.1188 757.7495,-418.0939"/>
<polygon fill="#c0c0c0" stroke="#c0c0c0" points="760.5642,-420.1843 764.3047,-410.2718 755.199,-415.6881 760.5642,-420.1843"/>
<text text-anchor="middle" x="793.1066" y="-432.6" font-family="Times,serif" font-size="14.00" fill="#000000">生活污水處理廠</text>
</g>
<!-- 污染點 -->
<g id="node25" class="node">
<title>污染點</title>
<ellipse fill="none" stroke="#000000" cx="643" cy="-392.4" rx="42.9016" ry="18"/>
<text text-anchor="middle" x="643" y="-388.2" font-family="Times,serif" font-size="14.00" fill="#000000">污染點</text>
</g>
<!-- 污染源s&#45;&gt;污染點 -->
<g id="edge47" class="edge">
<title>污染源s-&gt;污染點</title>
<path fill="none" stroke="#c0c0c0" d="M514.5296,-464.236C524.911,-452.9251 539.7018,-438.3602 555.0172,-428.4 568.282,-419.7734 583.9516,-412.559 598.3641,-406.909"/>
<polygon fill="#c0c0c0" stroke="#c0c0c0" points="599.9681,-410.0452 608.0962,-403.2492 597.5042,-403.4931 599.9681,-410.0452"/>
<text text-anchor="middle" x="612.4914" y="-432.6" font-family="Times,serif" font-size="14.00" fill="#000000">環境保護列管對象</text>
</g>
<!-- 污染源s&#45;&gt;污染點 -->
<g id="edge48" class="edge">
<title>污染源s-&gt;污染點</title>
<path fill="none" stroke="#c0c0c0" d="M541.1197,-478.1952C585.6197,-473.9876 652.3415,-464.5694 668,-445.2 674.6392,-436.9873 671.7417,-426.7205 665.967,-417.4291"/>
<polygon fill="#c0c0c0" stroke="#c0c0c0" points="668.7476,-415.3014 660.0458,-409.2574 663.0792,-419.4087 668.7476,-415.3014"/>
<text text-anchor="middle" x="696.5" y="-432.6" font-family="Times,serif" font-size="14.00" fill="#000000">廢水排放</text>
</g>
<!-- 污染源s&#45;&gt;污染點 -->
<g id="edge49" class="edge">
<title>污染源s-&gt;污染點</title>
<path fill="none" stroke="#c0c0c0" d="M494.5132,-463.2532C492.2695,-452.0969 491.7163,-438.0844 499.2742,-428.4 510.7022,-413.7565 554.9786,-404.1778 591.4036,-398.6097"/>
<polygon fill="#c0c0c0" stroke="#c0c0c0" points="592.0461,-402.0531 601.4353,-397.1447 591.0345,-395.1266 592.0461,-402.0531"/>
<text text-anchor="middle" x="515.3629" y="-432.6" font-family="Times,serif" font-size="14.00" fill="#000000">養殖</text>
</g>
<!-- 工廠&#45;&gt;污染流路 -->
<g id="edge51" class="edge">
<title>工廠-&gt;污染流路</title>
<path fill="none" stroke="#c0c0c0" d="M74.8479,-388.4781C105.2625,-383.7768 152.5014,-374.2007 190,-356.4 198.4656,-352.3814 412.191,-190.2363 492.1667,-129.4771"/>
<polygon fill="#c0c0c0" stroke="#c0c0c0" points="494.515,-132.0886 500.3598,-123.2518 490.28,-126.5149 494.515,-132.0886"/>
<text text-anchor="middle" x="399.5789" y="-235.8" font-family="Times,serif" font-size="14.00" fill="#000000">污染範圍為何</text>
</g>
<!-- 工廠&#45;&gt;管理單位 -->
<g id="edge53" class="edge">
<title>工廠-&gt;管理單位</title>
<path fill="none" stroke="#c0c0c0" d="M32.2088,-375.3133C19.1755,-354.7235 0,-318.6163 0,-284.4 0,-284.4 0,-284.4 0,-106.8 0,-65.6501 280.6559,-35.161 409.1348,-23.3596"/>
<polygon fill="#c0c0c0" stroke="#c0c0c0" points="409.5874,-26.8329 419.2295,-22.442 408.9537,-19.8617 409.5874,-26.8329"/>
<text text-anchor="middle" x="48.2202" y="-191.4" font-family="Times,serif" font-size="14.00" fill="#000000">管理單位為何</text>
</g>
<!-- 工廠&#45;&gt;工廠 -->
<g id="edge50" class="edge">
<title>工廠-&gt;工廠</title>
<path fill="none" stroke="#c0c0c0" d="M72.3793,-400.5996C83.7615,-401.0629 93.3151,-398.3297 93.3151,-392.4 93.3151,-388.416 89.0025,-385.8749 82.7201,-384.7768"/>
<polygon fill="#c0c0c0" stroke="#c0c0c0" points="82.5586,-381.2624 72.3793,-384.2004 82.169,-388.2516 82.5586,-381.2624"/>
<text text-anchor="middle" x="128.7064" y="-388.2" font-family="Times,serif" font-size="14.00" fill="#000000">目前排放狀況</text>
</g>
<!-- 工廠&#45;&gt;工業區域 -->
<g id="edge54" class="edge">
<title>工廠-&gt;工業區域</title>
<path fill="none" stroke="#c0c0c0" d="M52.0334,-374.8276C60.8843,-356.1112 75.056,-328.133 84.0656,-320.4 92.1211,-313.4859 113.4227,-305.2766 134.0119,-298.4446"/>
<polygon fill="#c0c0c0" stroke="#c0c0c0" points="135.2493,-301.7229 143.685,-295.3129 133.0932,-295.0632 135.2493,-301.7229"/>
<text text-anchor="middle" x="135.4672" y="-334.2" font-family="Times,serif" font-size="14.00" fill="#000000">屬於哪個工業區</text>
</g>
<!-- 工廠&#45;&gt;工業污水處理廠 -->
<g id="edge52" class="edge">
<title>工廠-&gt;工業污水處理廠</title>
<path fill="none" stroke="#c0c0c0" d="M42.7912,-374.1154C41.9004,-348.4935 43.2395,-301.1531 61.6248,-266.4 75.4627,-240.2427 103.1393,-223.3037 129.4461,-212.5772"/>
<polygon fill="#c0c0c0" stroke="#c0c0c0" points="130.9605,-215.7451 139.0479,-208.9008 128.4575,-209.2079 130.9605,-215.7451"/>
<text text-anchor="middle" x="93.6876" y="-280.2" font-family="Times,serif" font-size="14.00" fill="#000000">哪個污水廠</text>
</g>
<!-- 工業區域&#45;&gt;工業污水處理廠 -->
<g id="edge55" class="edge">
<title>工業區域-&gt;工業污水處理廠</title>
<path fill="none" stroke="#c0c0c0" d="M143.2548,-273.7414C118.9514,-264.8316 94.0602,-250.534 106.6248,-231.6 111.7849,-223.824 118.991,-217.7236 127.0506,-212.9386"/>
<polygon fill="#c0c0c0" stroke="#c0c0c0" points="128.8176,-215.9648 136.0747,-208.2457 125.5878,-209.7544 128.8176,-215.9648"/>
<text text-anchor="middle" x="138.6876" y="-235.8" font-family="Times,serif" font-size="14.00" fill="#000000">哪個污水廠</text>
</g>
<!-- 生活污染源&#45;&gt;污染流路 -->
<g id="edge56" class="edge">
<title>生活污染源-&gt;污染流路</title>
<path fill="none" stroke="#c0c0c0" d="M422.4746,-320.2267C441.4088,-279.6233 487.2253,-181.3724 509.4681,-133.6739"/>
<polygon fill="#c0c0c0" stroke="#c0c0c0" points="512.6588,-135.113 513.7131,-124.5708 506.3147,-132.1546 512.6588,-135.113"/>
<text text-anchor="middle" x="506.5789" y="-235.8" font-family="Times,serif" font-size="14.00" fill="#000000">污染範圍為何</text>
</g>
<!-- 生活污染源&#45;&gt;生活污染源 -->
<g id="edge57" class="edge">
<title>生活污染源-&gt;生活污染源</title>
<path fill="none" stroke="#c0c0c0" d="M466.97,-343.3129C478.4362,-342.8326 486.7516,-341.1949 486.7516,-338.4 486.7516,-336.5222 482.9979,-335.1667 477.0569,-334.3337"/>
<polygon fill="#c0c0c0" stroke="#c0c0c0" points="477.2278,-330.8358 466.97,-333.4871 476.6422,-337.8113 477.2278,-330.8358"/>
<text text-anchor="middle" x="519.2155" y="-334.2" font-family="Times,serif" font-size="14.00" fill="#000000">哪裡有垃圾</text>
</g>
<!-- 生活污染源&#45;&gt;生活污染源 -->
<g id="edge58" class="edge">
<title>生活污染源-&gt;生活污染源</title>
<path fill="none" stroke="#c0c0c0" d="M461.8272,-347.3012C502.9019,-350.4638 551.6794,-347.4967 551.6794,-338.4 551.6794,-330.0495 510.5762,-326.8643 472.0597,-328.8442"/>
<polygon fill="#c0c0c0" stroke="#c0c0c0" points="471.5833,-325.3674 461.8272,-329.4988 472.0302,-332.3532 471.5833,-325.3674"/>
<text text-anchor="middle" x="589.3933" y="-334.2" font-family="Times,serif" font-size="14.00" fill="#000000">哪裡有垃圾場</text>
</g>
<!-- 工業污水處理廠&#45;&gt;污染流路 -->
<g id="edge59" class="edge">
<title>工業污水處理廠-&gt;污染流路</title>
<path fill="none" stroke="#c0c0c0" d="M213.4872,-178.2825C229.4607,-166.3483 252.3025,-151.1822 274.8422,-142.8 308.3367,-130.3439 401.1565,-119.0041 463.0243,-112.5066"/>
<polygon fill="#c0c0c0" stroke="#c0c0c0" points="463.4677,-115.9795 473.0535,-111.4672 462.746,-109.0168 463.4677,-115.9795"/>
<text text-anchor="middle" x="317.5789" y="-147" font-family="Times,serif" font-size="14.00" fill="#000000">污染範圍為何</text>
</g>
<!-- 工業污水處理廠&#45;&gt;管理單位 -->
<g id="edge61" class="edge">
<title>工業污水處理廠-&gt;管理單位</title>
<path fill="none" stroke="#c0c0c0" d="M205.0829,-177.4694C213.6041,-166.5168 225.4416,-152.7911 238,-142.8 297.7875,-95.2346 378.3835,-56.897 427.6921,-35.8093"/>
<polygon fill="#c0c0c0" stroke="#c0c0c0" points="429.2727,-38.9411 437.1212,-31.8241 426.5475,-32.4933 429.2727,-38.9411"/>
<text text-anchor="middle" x="367.2202" y="-102.6" font-family="Times,serif" font-size="14.00" fill="#000000">管理單位為何</text>
</g>
<!-- 工業污水處理廠&#45;&gt;工業區域 -->
<g id="edge60" class="edge">
<title>工業污水處理廠-&gt;工業區域</title>
<path fill="none" stroke="#c0c0c0" d="M189.7613,-213.672C188.256,-225.8243 186.2404,-242.0958 184.522,-255.968"/>
<polygon fill="#c0c0c0" stroke="#c0c0c0" points="181.0352,-255.6461 183.2792,-266.0006 187.9821,-256.5067 181.0352,-255.6461"/>
<text text-anchor="middle" x="213.6676" y="-235.8" font-family="Times,serif" font-size="14.00" fill="#000000">處理範圍</text>
</g>
<!-- 工業污水處理廠&#45;&gt;工業污水處理廠 -->
<g id="edge62" class="edge">
<title>工業污水處理廠-&gt;工業污水處理廠</title>
<path fill="none" stroke="#c0c0c0" d="M261.4919,-203.6063C276.5344,-202.8234 287.4435,-200.1547 287.4435,-195.6 287.4435,-192.1484 281.1786,-189.7799 271.5976,-188.4943"/>
<polygon fill="#c0c0c0" stroke="#c0c0c0" points="271.7631,-184.9953 261.4919,-187.5937 271.1417,-191.9677 271.7631,-184.9953"/>
<text text-anchor="middle" x="317.1067" y="-191.4" font-family="Times,serif" font-size="14.00" fill="#000000">歷史水質</text>
</g>
<!-- 生活污水處理廠&#45;&gt;生活區域 -->
<g id="edge64" class="edge">
<title>生活污水處理廠-&gt;生活區域</title>
<path fill="none" stroke="#c0c0c0" d="M841.427,-383.7623C883.9032,-377.2278 935.0637,-367.502 954,-356.4 972.971,-345.2777 988.9969,-326.2142 1000.0005,-310.4964"/>
<polygon fill="#c0c0c0" stroke="#c0c0c0" points="1002.9155,-312.4336 1005.5837,-302.1802 997.1038,-308.5318 1002.9155,-312.4336"/>
<text text-anchor="middle" x="1028.7409" y="-334.2" font-family="Times,serif" font-size="14.00" fill="#000000">處理哪些區域</text>
</g>
<!-- 生活污水處理廠&#45;&gt;污染流路 -->
<g id="edge63" class="edge">
<title>生活污水處理廠-&gt;污染流路</title>
<path fill="none" stroke="#c0c0c0" d="M786.6718,-374.3134C802.1388,-342.6571 827.9053,-276.3267 799,-231.6 750.8312,-157.066 646.3298,-126.5966 580.348,-114.4656"/>
<polygon fill="#c0c0c0" stroke="#c0c0c0" points="580.5574,-110.9491 570.1036,-112.6721 579.3503,-117.8442 580.5574,-110.9491"/>
<text text-anchor="middle" x="849.5789" y="-235.8" font-family="Times,serif" font-size="14.00" fill="#000000">污染範圍為何</text>
</g>
<!-- 污染點&#45;&gt;污染流路 -->
<g id="edge65" class="edge">
<title>污染點-&gt;污染流路</title>
<path fill="none" stroke="#c0c0c0" d="M647.369,-374.2519C650.0852,-359.2608 651.8937,-337.71 645,-320.4 628.6969,-279.463 600.3883,-285.6453 576.8422,-248.4 553.7815,-211.9225 537.7884,-164.1963 529.2535,-134.523"/>
<polygon fill="#c0c0c0" stroke="#c0c0c0" points="532.6069,-133.5182 526.5463,-124.828 525.8648,-135.4009 532.6069,-133.5182"/>
<text text-anchor="middle" x="619.5789" y="-235.8" font-family="Times,serif" font-size="14.00" fill="#000000">污染範圍為何</text>
</g>
<!-- 污染點&#45;&gt;取水口 -->
<g id="edge66" class="edge">
<title>污染點-&gt;取水口</title>
<path fill="none" stroke="#c0c0c0" d="M653.5668,-374.9319C656.6683,-369.1919 659.8114,-362.6721 662,-356.4 680.5943,-303.1125 653.8093,-278.3255 685.4642,-231.6 723.9029,-174.8611 797.6414,-138.5342 843.0562,-120.4708"/>
<polygon fill="#c0c0c0" stroke="#c0c0c0" points="844.5078,-123.6621 852.5705,-116.7887 841.9813,-117.1339 844.5078,-123.6621"/>
<text text-anchor="middle" x="742.7679" y="-235.8" font-family="Times,serif" font-size="14.00" fill="#000000">會影響哪個取水口</text>
</g>
</g>
</svg>